<svg width="40" height="40" viewBox="0 0 40 40" fill="none" xmlns="http://www.w3.org/2000/svg">
<path opacity="0.4" d="M20 0C31.03 0 40 8.972 40 20C40 31.028 31.03 40 20 40C8.972 40 0 31.028 0 20C0 8.972 8.972 0 20 0Z" fill="url(#paint0_linear_161_90)"/>
<path d="M17.115 11.5588C17.497 11.5588 17.881 11.7048 18.173 11.9968L25.147 18.9368C25.429 19.2188 25.587 19.6008 25.587 20.0008C25.587 20.3988 25.429 20.7808 25.147 21.0628L18.173 28.0068C17.587 28.5908 16.639 28.5908 16.053 28.0028C15.469 27.4148 15.471 26.4648 16.057 25.8808L21.963 20.0008L16.057 14.1208C15.471 13.5368 15.469 12.5888 16.053 12.0008C16.345 11.7048 16.731 11.5588 17.115 11.5588Z" fill="url(#paint1_linear_161_90)"/>
<defs>
<linearGradient id="paint0_linear_161_90" x1="-2.38419e-06" y1="2.38419e-06" x2="40" y2="40" gradientUnits="userSpaceOnUse">
<stop stop-color="#916BE3"/>
<stop offset="1" stop-color="#61CCE3"/>
</linearGradient>
<linearGradient id="paint1_linear_161_90" x1="15.6162" y1="11.5588" x2="30.4021" y2="20.2898" gradientUnits="userSpaceOnUse">
<stop stop-color="#916BE3"/>
<stop offset="1" stop-color="#61CCE3"/>
</linearGradient>
</defs>
</svg>
