<svg width="36" height="37" viewBox="0 0 36 37" fill="none" xmlns="http://www.w3.org/2000/svg">
<g clip-path="url(#clip0_3_610)">
<path d="M23.9996 33.2343V27.4293C24.0559 26.714 23.9592 25.995 23.7161 25.32C23.473 24.645 23.089 24.0294 22.5896 23.5143C27.2996 22.9893 32.2496 21.2043 32.2496 13.0143C32.2492 10.92 31.4436 8.90608 29.9996 7.38928C30.6834 5.55704 30.635 3.53181 29.8646 1.73428C29.8646 1.73428 28.0946 1.20928 23.9996 3.95428C20.5616 3.02251 16.9376 3.02251 13.4996 3.95428C9.4046 1.20928 7.6346 1.73428 7.6346 1.73428C6.86417 3.53181 6.81582 5.55704 7.4996 7.38928C6.04479 8.91733 5.23839 10.9495 5.2496 13.0593C5.2496 21.1893 10.1996 22.9743 14.9096 23.5593C14.4161 24.0692 14.0355 24.6774 13.7926 25.3442C13.5496 26.0109 13.4498 26.7214 13.4996 27.4293V33.2343M13.4996 28.7343C5.9996 30.9843 5.9996 24.9843 2.9996 24.2343L13.4996 28.7343Z" stroke="url(#paint0_linear_3_610)" stroke-width="3.00312" stroke-linecap="round" stroke-linejoin="round"/>
</g>
<defs>
<linearGradient id="paint0_linear_3_610" x1="30.1603" y1="4.56138" x2="3.79986" y2="29.1973" gradientUnits="userSpaceOnUse">
<stop stop-color="#5390E3"/>
<stop offset="1" stop-color="#1357B3"/>
</linearGradient>
<clipPath id="clip0_3_610">
<rect width="36" height="36" fill="white" transform="translate(0 0.234375)"/>
</clipPath>
</defs>
</svg>
