<svg width="1920" height="1080" viewBox="0 0 1920 1080" fill="none" xmlns="http://www.w3.org/2000/svg">
<rect width="1920" height="1080" fill="#EDEAEF"/>
<g filter="url(#filter0_dddddd_1_2)">
<path fill-rule="evenodd" clip-rule="evenodd" d="M822.138 416.132C822.138 415.764 822.414 414.44 823.53 412.509C824.587 410.679 826.26 408.553 828.666 406.579C833.424 402.677 841.181 399.267 853.023 400.136C899.532 403.551 925.975 435.614 925.975 460.101V603.002C925.975 605.353 925.433 606.578 924.805 607.232C924.199 607.863 922.999 608.496 920.449 608.496H892.864C890.313 608.496 889.114 607.863 888.508 607.232C887.88 606.578 887.338 605.353 887.338 603.002V471.093C887.338 462.666 883.191 454.205 877.033 447.902C870.862 441.587 862.355 437.115 853.243 437.115H822.138V416.132ZM853.243 443.115H822.138V603.002C822.138 606.506 821.487 609.683 819.199 611.858C816.947 614 813.803 614.496 810.612 614.496H782.526C779.704 614.496 776.707 613.947 774.411 611.946C772.032 609.872 771 606.773 771 603.002V469.595C771 463.128 774.713 455.082 780.27 448.753C785.867 442.38 793.893 437.115 803.086 437.115H816.138V416.132C816.138 414.251 816.983 411.847 818.334 409.508C819.744 407.068 821.883 404.382 824.861 401.94C830.87 397.012 840.165 393.176 853.462 394.153C902.246 397.734 931.975 431.675 931.975 460.101V603.002C931.975 606.146 931.263 609.169 929.133 611.387C926.98 613.629 923.916 614.496 920.449 614.496H892.864C889.396 614.496 886.333 613.629 884.18 611.387C882.05 609.169 881.338 606.146 881.338 603.002V471.093C881.338 464.572 878.066 457.544 872.741 452.095C867.428 446.658 860.388 443.115 853.243 443.115ZM803.086 443.115H816.138V603.002C816.138 605.992 815.536 607.063 815.065 607.51C814.559 607.992 813.44 608.496 810.612 608.496H782.526C780.333 608.496 779.067 608.045 778.354 607.423C777.723 606.873 777 605.725 777 603.002V469.595C777 465.07 779.805 458.376 784.779 452.712C789.713 447.094 796.23 443.115 803.086 443.115ZM1071.34 635.008C1071.34 635.376 1071.06 636.7 1069.95 638.631C1068.89 640.461 1067.22 642.588 1064.81 644.561C1060.05 648.463 1052.29 651.873 1040.45 651.004C993.943 647.59 967.5 615.527 967.5 591.039V448.139C967.5 445.787 968.042 444.563 968.67 443.908C969.276 443.277 970.475 442.644 973.026 442.644H1000.61C1003.16 442.644 1004.36 443.277 1004.97 443.908C1005.59 444.563 1006.14 445.787 1006.14 448.139V580.047C1006.14 588.474 1010.28 596.936 1016.44 603.238C1022.61 609.553 1031.12 614.025 1040.23 614.025H1071.34V635.008ZM1040.23 608.025H1071.34V448.139C1071.34 444.634 1071.99 441.457 1074.28 439.282C1076.53 437.14 1079.67 436.644 1082.86 436.644H1110.95C1113.77 436.644 1116.77 437.193 1119.06 439.194C1121.44 441.268 1122.47 444.367 1122.47 448.139V581.545C1122.47 588.012 1118.76 596.058 1113.2 602.387C1107.61 608.76 1099.58 614.025 1090.39 614.025H1077.34V635.008C1077.34 636.89 1076.49 639.294 1075.14 641.632C1073.73 644.073 1071.59 646.758 1068.61 649.2C1062.61 654.128 1053.31 657.964 1040.01 656.988C991.229 653.407 961.5 619.465 961.5 591.039V448.139C961.5 444.994 962.212 441.971 964.342 439.753C966.495 437.511 969.558 436.644 973.026 436.644H1000.61C1004.08 436.644 1007.14 437.511 1009.29 439.753C1011.42 441.971 1012.14 444.994 1012.14 448.139V580.047C1012.14 586.569 1015.41 593.596 1020.73 599.045C1026.05 604.483 1033.09 608.025 1040.23 608.025ZM1090.39 608.025H1077.34V448.139C1077.34 445.148 1077.94 444.078 1078.41 443.63C1078.92 443.148 1080.03 442.644 1082.86 442.644H1110.95C1113.14 442.644 1114.41 443.096 1115.12 443.717C1115.75 444.267 1116.47 445.415 1116.47 448.139V581.545C1116.47 586.07 1113.67 592.764 1108.7 598.428C1103.76 604.046 1097.25 608.025 1090.39 608.025Z" fill="url(#paint0_linear_1_2)"/>
</g>
<path d="M1673.16 1004V988.256H1677.1C1679.53 988.256 1681.38 988.928 1682.64 990.272C1683.9 991.616 1684.54 993.544 1684.54 996.056C1684.54 997.304 1684.38 998.424 1684.06 999.416C1683.74 1000.39 1683.26 1001.22 1682.64 1001.91C1682.02 1002.58 1681.25 1003.1 1680.34 1003.47C1679.42 1003.82 1678.38 1004 1677.19 1004H1673.16ZM1675.15 1002.37H1676.95C1678.79 1002.37 1680.17 1001.82 1681.08 1000.71C1682.01 999.608 1682.47 998.056 1682.47 996.056C1682.47 994.056 1682.01 992.528 1681.08 991.472C1680.17 990.416 1678.79 989.888 1676.95 989.888H1675.15V1002.37ZM1692.46 1004.29C1691.68 1004.29 1690.94 1004.15 1690.25 1003.88C1689.58 1003.59 1688.99 1003.19 1688.48 1002.68C1687.98 1002.15 1687.59 1001.51 1687.3 1000.76C1687.01 1000.01 1686.87 999.152 1686.87 998.192C1686.87 997.232 1687.01 996.376 1687.3 995.624C1687.61 994.856 1688 994.208 1688.48 993.68C1688.97 993.152 1689.53 992.752 1690.16 992.48C1690.78 992.192 1691.43 992.048 1692.1 992.048C1692.84 992.048 1693.49 992.176 1694.07 992.432C1694.66 992.688 1695.15 993.056 1695.53 993.536C1695.93 994.016 1696.24 994.592 1696.45 995.264C1696.65 995.936 1696.76 996.688 1696.76 997.52C1696.76 997.728 1696.75 997.936 1696.73 998.144C1696.73 998.336 1696.72 998.504 1696.69 998.648H1688.81C1688.89 999.896 1689.28 1000.89 1689.97 1001.62C1690.67 1002.34 1691.58 1002.7 1692.7 1002.7C1693.26 1002.7 1693.77 1002.62 1694.24 1002.46C1694.72 1002.29 1695.17 1002.06 1695.61 1001.79L1696.3 1003.09C1695.79 1003.41 1695.22 1003.69 1694.6 1003.93C1693.97 1004.17 1693.26 1004.29 1692.46 1004.29ZM1688.79 997.232H1695.03C1695.03 996.048 1694.77 995.152 1694.26 994.544C1693.77 993.92 1693.06 993.608 1692.15 993.608C1691.73 993.608 1691.33 993.688 1690.95 993.848C1690.58 994.008 1690.25 994.248 1689.94 994.568C1689.64 994.872 1689.38 995.248 1689.17 995.696C1688.98 996.144 1688.85 996.656 1688.79 997.232ZM1702.69 1004.29C1701.86 1004.29 1701.06 1004.14 1700.31 1003.83C1699.56 1003.53 1698.9 1003.14 1698.34 1002.68L1699.33 1001.36C1699.84 1001.78 1700.36 1002.11 1700.89 1002.37C1701.43 1002.62 1702.06 1002.75 1702.76 1002.75C1703.53 1002.75 1704.1 1002.58 1704.49 1002.22C1704.87 1001.87 1705.06 1001.44 1705.06 1000.93C1705.06 1000.62 1704.98 1000.36 1704.82 1000.14C1704.66 999.912 1704.46 999.72 1704.2 999.56C1703.96 999.384 1703.68 999.232 1703.36 999.104C1703.04 998.976 1702.72 998.848 1702.4 998.72C1701.98 998.576 1701.57 998.416 1701.15 998.24C1700.74 998.048 1700.36 997.824 1700.02 997.568C1699.7 997.296 1699.44 996.984 1699.23 996.632C1699.02 996.28 1698.92 995.856 1698.92 995.36C1698.92 994.896 1699.01 994.464 1699.18 994.064C1699.38 993.648 1699.64 993.296 1699.98 993.008C1700.33 992.704 1700.75 992.472 1701.25 992.312C1701.74 992.136 1702.3 992.048 1702.93 992.048C1703.66 992.048 1704.34 992.176 1704.94 992.432C1705.57 992.688 1706.1 993 1706.55 993.368L1705.62 994.616C1705.22 994.312 1704.8 994.064 1704.37 993.872C1703.94 993.68 1703.46 993.584 1702.95 993.584C1702.22 993.584 1701.67 993.752 1701.32 994.088C1700.98 994.424 1700.82 994.816 1700.82 995.264C1700.82 995.536 1700.89 995.776 1701.03 995.984C1701.18 996.176 1701.37 996.352 1701.61 996.512C1701.85 996.656 1702.12 996.792 1702.42 996.92C1702.74 997.032 1703.07 997.152 1703.41 997.28C1703.82 997.44 1704.24 997.608 1704.66 997.784C1705.09 997.96 1705.47 998.184 1705.81 998.456C1706.14 998.712 1706.42 999.032 1706.62 999.416C1706.85 999.8 1706.96 1000.26 1706.96 1000.81C1706.96 1001.29 1706.86 1001.74 1706.67 1002.15C1706.5 1002.57 1706.22 1002.94 1705.86 1003.26C1705.5 1003.58 1705.06 1003.82 1704.51 1004C1703.98 1004.19 1703.38 1004.29 1702.69 1004.29ZM1714.42 1004.29C1713.64 1004.29 1712.9 1004.15 1712.21 1003.88C1711.54 1003.59 1710.95 1003.19 1710.44 1002.68C1709.94 1002.15 1709.55 1001.51 1709.26 1000.76C1708.97 1000.01 1708.83 999.152 1708.83 998.192C1708.83 997.232 1708.97 996.376 1709.26 995.624C1709.57 994.856 1709.96 994.208 1710.44 993.68C1710.93 993.152 1711.49 992.752 1712.12 992.48C1712.74 992.192 1713.39 992.048 1714.06 992.048C1714.8 992.048 1715.45 992.176 1716.03 992.432C1716.62 992.688 1717.11 993.056 1717.49 993.536C1717.89 994.016 1718.2 994.592 1718.41 995.264C1718.61 995.936 1718.72 996.688 1718.72 997.52C1718.72 997.728 1718.71 997.936 1718.69 998.144C1718.69 998.336 1718.68 998.504 1718.65 998.648H1710.77C1710.85 999.896 1711.24 1000.89 1711.93 1001.62C1712.63 1002.34 1713.54 1002.7 1714.66 1002.7C1715.22 1002.7 1715.73 1002.62 1716.2 1002.46C1716.68 1002.29 1717.13 1002.06 1717.57 1001.79L1718.26 1003.09C1717.75 1003.41 1717.18 1003.69 1716.56 1003.93C1715.93 1004.17 1715.22 1004.29 1714.42 1004.29ZM1710.75 997.232H1716.99C1716.99 996.048 1716.73 995.152 1716.22 994.544C1715.73 993.92 1715.02 993.608 1714.11 993.608C1713.69 993.608 1713.29 993.688 1712.91 993.848C1712.54 994.008 1712.21 994.248 1711.9 994.568C1711.6 994.872 1711.34 995.248 1711.13 995.696C1710.94 996.144 1710.81 996.656 1710.75 997.232ZM1721.6 1004V992.336H1723.23L1723.4 994.016H1723.47C1724.03 993.456 1724.62 992.992 1725.22 992.624C1725.85 992.24 1726.57 992.048 1727.38 992.048C1728.62 992.048 1729.51 992.432 1730.07 993.2C1730.65 993.968 1730.94 995.104 1730.94 996.608V1004H1728.97V996.872C1728.97 995.768 1728.79 994.976 1728.44 994.496C1728.09 994 1727.53 993.752 1726.76 993.752C1726.15 993.752 1725.62 993.904 1725.15 994.208C1724.69 994.512 1724.16 994.96 1723.57 995.552V1004H1721.6ZM1737.25 1004L1733.05 992.336H1735.09L1737.29 998.96C1737.47 999.536 1737.65 1000.11 1737.82 1000.69C1738.01 1001.26 1738.2 1001.83 1738.37 1002.39H1738.47C1738.65 1001.83 1738.82 1001.26 1739 1000.69C1739.17 1000.11 1739.35 999.536 1739.53 998.96L1741.73 992.336H1743.68L1739.55 1004H1737.25ZM1750.37 1004.29C1749.65 1004.29 1748.96 1004.15 1748.31 1003.88C1747.67 1003.61 1747.1 1003.22 1746.6 1002.7C1746.11 1002.18 1745.71 1001.54 1745.4 1000.78C1745.12 1000.02 1744.97 999.152 1744.97 998.192C1744.97 997.216 1745.12 996.352 1745.4 995.6C1745.71 994.832 1746.11 994.184 1746.6 993.656C1747.1 993.128 1747.67 992.728 1748.31 992.456C1748.96 992.184 1749.65 992.048 1750.37 992.048C1751.09 992.048 1751.77 992.184 1752.41 992.456C1753.07 992.728 1753.64 993.128 1754.14 993.656C1754.64 994.184 1755.03 994.832 1755.32 995.6C1755.62 996.352 1755.77 997.216 1755.77 998.192C1755.77 999.152 1755.62 1000.02 1755.32 1000.78C1755.03 1001.54 1754.64 1002.18 1754.14 1002.7C1753.64 1003.22 1753.07 1003.61 1752.41 1003.88C1751.77 1004.15 1751.09 1004.29 1750.37 1004.29ZM1750.37 1002.66C1750.87 1002.66 1751.32 1002.55 1751.74 1002.34C1752.16 1002.12 1752.51 1001.82 1752.8 1001.43C1753.1 1001.03 1753.33 1000.56 1753.49 1000.02C1753.65 999.472 1753.73 998.864 1753.73 998.192C1753.73 997.52 1753.65 996.912 1753.49 996.368C1753.33 995.808 1753.1 995.328 1752.8 994.928C1752.51 994.528 1752.16 994.224 1751.74 994.016C1751.32 993.792 1750.87 993.68 1750.37 993.68C1749.88 993.68 1749.42 993.792 1749 994.016C1748.59 994.224 1748.23 994.528 1747.92 994.928C1747.64 995.328 1747.41 995.808 1747.25 996.368C1747.09 996.912 1747.01 997.52 1747.01 998.192C1747.01 998.864 1747.09 999.472 1747.25 1000.02C1747.41 1000.56 1747.64 1001.03 1747.92 1001.43C1748.23 1001.82 1748.59 1002.12 1749 1002.34C1749.42 1002.55 1749.88 1002.66 1750.37 1002.66ZM1760.93 1004.29C1760.18 1004.29 1759.64 1004.06 1759.32 1003.62C1759 1003.17 1758.84 1002.51 1758.84 1001.65V986.912H1760.81V1001.79C1760.81 1002.11 1760.87 1002.34 1760.98 1002.46C1761.09 1002.59 1761.22 1002.66 1761.36 1002.66C1761.43 1002.66 1761.48 1002.66 1761.53 1002.66C1761.6 1002.66 1761.68 1002.64 1761.8 1002.61L1762.06 1004.1C1761.93 1004.16 1761.78 1004.21 1761.6 1004.24C1761.43 1004.27 1761.2 1004.29 1760.93 1004.29ZM1767.48 1004L1763.28 992.336H1765.32L1767.53 998.96C1767.7 999.536 1767.88 1000.11 1768.06 1000.69C1768.25 1001.26 1768.43 1001.83 1768.61 1002.39H1768.7C1768.88 1001.83 1769.06 1001.26 1769.23 1000.69C1769.41 1000.11 1769.58 999.536 1769.76 998.96L1771.97 992.336H1773.91L1769.78 1004H1767.48ZM1776.16 1004V992.336H1778.13V1004H1776.16ZM1777.17 989.936C1776.79 989.936 1776.46 989.816 1776.19 989.576C1775.93 989.336 1775.8 989.032 1775.8 988.664C1775.8 988.28 1775.93 987.976 1776.19 987.752C1776.46 987.512 1776.79 987.392 1777.17 987.392C1777.56 987.392 1777.88 987.512 1778.13 987.752C1778.4 987.976 1778.54 988.28 1778.54 988.664C1778.54 989.032 1778.4 989.336 1778.13 989.576C1777.88 989.816 1777.56 989.936 1777.17 989.936ZM1786.05 1004.29C1784.58 1004.29 1783.41 1003.76 1782.53 1002.7C1781.66 1001.65 1781.23 1000.14 1781.23 998.192C1781.23 997.248 1781.37 996.4 1781.64 995.648C1781.93 994.88 1782.3 994.232 1782.77 993.704C1783.23 993.176 1783.77 992.768 1784.37 992.48C1784.98 992.192 1785.62 992.048 1786.29 992.048C1786.97 992.048 1787.55 992.168 1788.05 992.408C1788.54 992.648 1789.05 992.976 1789.56 993.392L1789.46 991.4V986.912H1791.45V1004H1789.82L1789.65 1002.63H1789.58C1789.12 1003.08 1788.58 1003.47 1787.97 1003.81C1787.38 1004.13 1786.74 1004.29 1786.05 1004.29ZM1786.49 1002.63C1787.03 1002.63 1787.54 1002.5 1788.02 1002.25C1788.5 1001.98 1788.98 1001.57 1789.46 1001.02V994.928C1788.97 994.48 1788.49 994.168 1788.02 993.992C1787.57 993.8 1787.11 993.704 1786.63 993.704C1786.17 993.704 1785.73 993.816 1785.31 994.04C1784.91 994.248 1784.56 994.552 1784.25 994.952C1783.95 995.336 1783.71 995.8 1783.53 996.344C1783.36 996.888 1783.27 997.496 1783.27 998.168C1783.27 999.576 1783.55 1000.67 1784.11 1001.46C1784.67 1002.24 1785.46 1002.63 1786.49 1002.63ZM1799.92 1004.29C1799.2 1004.29 1798.51 1004.15 1797.85 1003.88C1797.21 1003.61 1796.65 1003.22 1796.15 1002.7C1795.65 1002.18 1795.25 1001.54 1794.95 1000.78C1794.66 1000.02 1794.52 999.152 1794.52 998.192C1794.52 997.216 1794.66 996.352 1794.95 995.6C1795.25 994.832 1795.65 994.184 1796.15 993.656C1796.65 993.128 1797.21 992.728 1797.85 992.456C1798.51 992.184 1799.2 992.048 1799.92 992.048C1800.64 992.048 1801.32 992.184 1801.96 992.456C1802.61 992.728 1803.19 993.128 1803.69 993.656C1804.18 994.184 1804.57 994.832 1804.86 995.6C1805.17 996.352 1805.32 997.216 1805.32 998.192C1805.32 999.152 1805.17 1000.02 1804.86 1000.78C1804.57 1001.54 1804.18 1002.18 1803.69 1002.7C1803.19 1003.22 1802.61 1003.61 1801.96 1003.88C1801.32 1004.15 1800.64 1004.29 1799.92 1004.29ZM1799.92 1002.66C1800.41 1002.66 1800.87 1002.55 1801.29 1002.34C1801.7 1002.12 1802.05 1001.82 1802.34 1001.43C1802.65 1001.03 1802.88 1000.56 1803.04 1000.02C1803.2 999.472 1803.28 998.864 1803.28 998.192C1803.28 997.52 1803.2 996.912 1803.04 996.368C1802.88 995.808 1802.65 995.328 1802.34 994.928C1802.05 994.528 1801.7 994.224 1801.29 994.016C1800.87 993.792 1800.41 993.68 1799.92 993.68C1799.42 993.68 1798.97 993.792 1798.55 994.016C1798.13 994.224 1797.77 994.528 1797.47 994.928C1797.18 995.328 1796.96 995.808 1796.8 996.368C1796.64 996.912 1796.56 997.52 1796.56 998.192C1796.56 998.864 1796.64 999.472 1796.8 1000.02C1796.96 1000.56 1797.18 1001.03 1797.47 1001.43C1797.77 1001.82 1798.13 1002.12 1798.55 1002.34C1798.97 1002.55 1799.42 1002.66 1799.92 1002.66ZM1813.19 1008.92V992.336H1814.83L1814.99 993.68H1815.07C1815.59 993.232 1816.17 992.848 1816.79 992.528C1817.43 992.208 1818.1 992.048 1818.79 992.048C1819.54 992.048 1820.2 992.192 1820.78 992.48C1821.35 992.752 1821.83 993.152 1822.22 993.68C1822.6 994.192 1822.89 994.816 1823.08 995.552C1823.29 996.272 1823.39 997.088 1823.39 998C1823.39 998.992 1823.26 999.88 1822.99 1000.66C1822.71 1001.43 1822.35 1002.09 1821.88 1002.63C1821.42 1003.18 1820.88 1003.59 1820.27 1003.88C1819.67 1004.15 1819.03 1004.29 1818.35 1004.29C1817.81 1004.29 1817.27 1004.17 1816.72 1003.93C1816.19 1003.69 1815.66 1003.36 1815.11 1002.94L1815.16 1004.98V1008.92H1813.19ZM1818.02 1002.63C1818.5 1002.63 1818.94 1002.53 1819.34 1002.32C1819.75 1002.1 1820.11 1001.79 1820.39 1001.41C1820.7 1001.01 1820.93 1000.52 1821.09 999.944C1821.27 999.368 1821.35 998.72 1821.35 998C1821.35 997.36 1821.3 996.776 1821.19 996.248C1821.07 995.72 1820.89 995.272 1820.63 994.904C1820.39 994.52 1820.07 994.224 1819.67 994.016C1819.29 993.808 1818.83 993.704 1818.28 993.704C1817.79 993.704 1817.28 993.84 1816.77 994.112C1816.27 994.384 1815.74 994.776 1815.16 995.288V1001.41C1815.69 1001.86 1816.2 1002.18 1816.7 1002.37C1817.19 1002.54 1817.63 1002.63 1818.02 1002.63ZM1831.04 1004.29C1830.32 1004.29 1829.64 1004.15 1828.98 1003.88C1828.34 1003.61 1827.77 1003.22 1827.28 1002.7C1826.78 1002.18 1826.38 1001.54 1826.08 1000.78C1825.79 1000.02 1825.64 999.152 1825.64 998.192C1825.64 997.216 1825.79 996.352 1826.08 995.6C1826.38 994.832 1826.78 994.184 1827.28 993.656C1827.77 993.128 1828.34 992.728 1828.98 992.456C1829.64 992.184 1830.32 992.048 1831.04 992.048C1831.76 992.048 1832.44 992.184 1833.08 992.456C1833.74 992.728 1834.32 993.128 1834.81 993.656C1835.31 994.184 1835.7 994.832 1835.99 995.6C1836.29 996.352 1836.44 997.216 1836.44 998.192C1836.44 999.152 1836.29 1000.02 1835.99 1000.78C1835.7 1001.54 1835.31 1002.18 1834.81 1002.7C1834.32 1003.22 1833.74 1003.61 1833.08 1003.88C1832.44 1004.15 1831.76 1004.29 1831.04 1004.29ZM1831.04 1002.66C1831.54 1002.66 1832 1002.55 1832.41 1002.34C1832.83 1002.12 1833.18 1001.82 1833.47 1001.43C1833.77 1001.03 1834 1000.56 1834.16 1000.02C1834.32 999.472 1834.4 998.864 1834.4 998.192C1834.4 997.52 1834.32 996.912 1834.16 996.368C1834 995.808 1833.77 995.328 1833.47 994.928C1833.18 994.528 1832.83 994.224 1832.41 994.016C1832 993.792 1831.54 993.68 1831.04 993.68C1830.55 993.68 1830.09 993.792 1829.68 994.016C1829.26 994.224 1828.9 994.528 1828.6 994.928C1828.31 995.328 1828.08 995.808 1827.92 996.368C1827.76 996.912 1827.68 997.52 1827.68 998.192C1827.68 998.864 1827.76 999.472 1827.92 1000.02C1828.08 1000.56 1828.31 1001.03 1828.6 1001.43C1828.9 1001.82 1829.26 1002.12 1829.68 1002.34C1830.09 1002.55 1830.55 1002.66 1831.04 1002.66ZM1839.51 1004V992.336H1841.15L1841.31 994.448H1841.39C1841.79 993.712 1842.27 993.128 1842.83 992.696C1843.4 992.264 1844.03 992.048 1844.7 992.048C1845.16 992.048 1845.58 992.128 1845.95 992.288L1845.56 994.016C1845.37 993.952 1845.19 993.904 1845.03 993.872C1844.87 993.84 1844.67 993.824 1844.43 993.824C1843.94 993.824 1843.42 994.024 1842.87 994.424C1842.35 994.824 1841.88 995.52 1841.48 996.512V1004H1839.51ZM1849.48 995.624C1849.08 995.624 1848.73 995.488 1848.44 995.216C1848.17 994.928 1848.04 994.568 1848.04 994.136C1848.04 993.672 1848.17 993.304 1848.44 993.032C1848.73 992.744 1849.08 992.6 1849.48 992.6C1849.86 992.6 1850.19 992.744 1850.46 993.032C1850.75 993.304 1850.89 993.672 1850.89 994.136C1850.89 994.568 1850.75 994.928 1850.46 995.216C1850.19 995.488 1849.86 995.624 1849.48 995.624ZM1849.48 1004.29C1849.08 1004.29 1848.73 1004.15 1848.44 1003.88C1848.17 1003.59 1848.04 1003.23 1848.04 1002.8C1848.04 1002.34 1848.17 1001.97 1848.44 1001.7C1848.73 1001.41 1849.08 1001.26 1849.48 1001.26C1849.86 1001.26 1850.19 1001.41 1850.46 1001.7C1850.75 1001.97 1850.89 1002.34 1850.89 1002.8C1850.89 1003.23 1850.75 1003.59 1850.46 1003.88C1850.19 1004.15 1849.86 1004.29 1849.48 1004.29Z" fill="#EDEAEF"/>
<path d="M1672.85 1029V1013.35H1676.47L1680.55 1021.13L1682.09 1024.58H1682.18C1682.1 1023.75 1682.01 1022.82 1681.9 1021.8C1681.8 1020.78 1681.75 1019.8 1681.75 1018.87V1013.35H1685.11V1029H1681.49L1677.41 1021.2L1675.87 1017.79H1675.78C1675.86 1018.66 1675.94 1019.58 1676.04 1020.58C1676.15 1021.57 1676.21 1022.53 1676.21 1023.46V1029H1672.85ZM1691.52 1029.29C1690.98 1029.29 1690.48 1029.19 1690.03 1029C1689.6 1028.82 1689.23 1028.58 1688.93 1028.26C1688.62 1027.92 1688.38 1027.54 1688.21 1027.1C1688.05 1026.67 1687.97 1026.2 1687.97 1025.69C1687.97 1024.44 1688.5 1023.46 1689.55 1022.76C1690.61 1022.06 1692.31 1021.58 1694.66 1021.34C1694.63 1020.82 1694.47 1020.4 1694.18 1020.1C1693.91 1019.78 1693.45 1019.62 1692.79 1019.62C1692.28 1019.62 1691.77 1019.71 1691.26 1019.9C1690.76 1020.1 1690.22 1020.36 1689.65 1020.7L1688.38 1018.37C1689.14 1017.9 1689.94 1017.53 1690.78 1017.24C1691.62 1016.95 1692.52 1016.81 1693.46 1016.81C1695 1016.81 1696.17 1017.25 1696.97 1018.13C1697.78 1018.99 1698.19 1020.34 1698.19 1022.18V1029H1695.31L1695.07 1027.78H1694.98C1694.46 1028.22 1693.93 1028.59 1693.37 1028.88C1692.81 1029.15 1692.19 1029.29 1691.52 1029.29ZM1692.72 1026.55C1693.12 1026.55 1693.46 1026.46 1693.75 1026.29C1694.04 1026.11 1694.34 1025.86 1694.66 1025.54V1023.46C1693.42 1023.63 1692.55 1023.89 1692.07 1024.22C1691.59 1024.56 1691.35 1024.96 1691.35 1025.42C1691.35 1025.81 1691.47 1026.1 1691.71 1026.29C1691.97 1026.46 1692.3 1026.55 1692.72 1026.55ZM1693.8 1015.27L1692.07 1013.54L1695.77 1009.18L1698.14 1011.5L1693.8 1015.27ZM1704.68 1029.29C1703.9 1029.29 1703.09 1029.14 1702.26 1028.83C1701.44 1028.53 1700.73 1028.13 1700.12 1027.63L1701.71 1025.42C1702.25 1025.84 1702.77 1026.15 1703.27 1026.36C1703.76 1026.57 1704.27 1026.67 1704.78 1026.67C1705.31 1026.67 1705.69 1026.58 1705.93 1026.41C1706.17 1026.23 1706.29 1025.98 1706.29 1025.66C1706.29 1025.47 1706.22 1025.3 1706.07 1025.16C1705.95 1025 1705.76 1024.86 1705.52 1024.73C1705.3 1024.6 1705.04 1024.49 1704.75 1024.39C1704.47 1024.28 1704.17 1024.16 1703.87 1024.03C1703.5 1023.89 1703.13 1023.72 1702.76 1023.53C1702.39 1023.34 1702.06 1023.1 1701.75 1022.83C1701.45 1022.54 1701.2 1022.22 1701.01 1021.85C1700.82 1021.46 1700.72 1021.02 1700.72 1020.53C1700.72 1019.98 1700.83 1019.48 1701.03 1019.02C1701.26 1018.55 1701.57 1018.16 1701.97 1017.84C1702.37 1017.52 1702.85 1017.27 1703.41 1017.1C1703.97 1016.9 1704.59 1016.81 1705.28 1016.81C1706.19 1016.81 1706.99 1016.97 1707.68 1017.29C1708.37 1017.59 1708.97 1017.94 1709.48 1018.32L1707.9 1020.43C1707.47 1020.11 1707.04 1019.86 1706.63 1019.69C1706.21 1019.51 1705.79 1019.42 1705.38 1019.42C1704.48 1019.42 1704.03 1019.74 1704.03 1020.36C1704.03 1020.55 1704.1 1020.72 1704.23 1020.86C1704.35 1020.99 1704.52 1021.11 1704.73 1021.22C1704.95 1021.34 1705.2 1021.45 1705.47 1021.56C1705.76 1021.66 1706.06 1021.76 1706.36 1021.87C1706.75 1022.02 1707.12 1022.18 1707.49 1022.38C1707.87 1022.55 1708.22 1022.78 1708.52 1023.05C1708.84 1023.32 1709.1 1023.66 1709.29 1024.06C1709.48 1024.44 1709.58 1024.9 1709.58 1025.45C1709.58 1025.99 1709.47 1026.5 1709.27 1026.96C1709.06 1027.42 1708.75 1027.83 1708.33 1028.18C1707.91 1028.52 1707.4 1028.79 1706.79 1029C1706.19 1029.19 1705.48 1029.29 1704.68 1029.29ZM1715.32 1029.29C1714.54 1029.29 1713.73 1029.14 1712.9 1028.83C1712.08 1028.53 1711.37 1028.13 1710.76 1027.63L1712.35 1025.42C1712.89 1025.84 1713.41 1026.15 1713.91 1026.36C1714.4 1026.57 1714.91 1026.67 1715.42 1026.67C1715.95 1026.67 1716.33 1026.58 1716.57 1026.41C1716.81 1026.23 1716.93 1025.98 1716.93 1025.66C1716.93 1025.47 1716.86 1025.3 1716.71 1025.16C1716.59 1025 1716.4 1024.86 1716.16 1024.73C1715.94 1024.6 1715.68 1024.49 1715.39 1024.39C1715.11 1024.28 1714.81 1024.16 1714.51 1024.03C1714.14 1023.89 1713.77 1023.72 1713.4 1023.53C1713.03 1023.34 1712.7 1023.1 1712.39 1022.83C1712.09 1022.54 1711.84 1022.22 1711.65 1021.85C1711.46 1021.46 1711.36 1021.02 1711.36 1020.53C1711.36 1019.98 1711.47 1019.48 1711.67 1019.02C1711.9 1018.55 1712.21 1018.16 1712.61 1017.84C1713.01 1017.52 1713.49 1017.27 1714.05 1017.1C1714.61 1016.9 1715.23 1016.81 1715.92 1016.81C1716.83 1016.81 1717.63 1016.97 1718.32 1017.29C1719.01 1017.59 1719.61 1017.94 1720.12 1018.32L1718.54 1020.43C1718.11 1020.11 1717.68 1019.86 1717.27 1019.69C1716.85 1019.51 1716.43 1019.42 1716.02 1019.42C1715.12 1019.42 1714.67 1019.74 1714.67 1020.36C1714.67 1020.55 1714.74 1020.72 1714.87 1020.86C1714.99 1020.99 1715.16 1021.11 1715.37 1021.22C1715.59 1021.34 1715.84 1021.45 1716.11 1021.56C1716.4 1021.66 1716.7 1021.76 1717 1021.87C1717.39 1022.02 1717.76 1022.18 1718.13 1022.38C1718.51 1022.55 1718.86 1022.78 1719.16 1023.05C1719.48 1023.32 1719.74 1023.66 1719.93 1024.06C1720.12 1024.44 1720.22 1024.9 1720.22 1025.45C1720.22 1025.99 1720.11 1026.5 1719.91 1026.96C1719.7 1027.42 1719.39 1027.83 1718.97 1028.18C1718.55 1028.52 1718.04 1028.79 1717.43 1029C1716.83 1029.19 1716.12 1029.29 1715.32 1029.29ZM1727.79 1029.29C1726.94 1029.29 1726.15 1029.15 1725.41 1028.88C1724.67 1028.59 1724.03 1028.18 1723.49 1027.66C1722.95 1027.11 1722.52 1026.46 1722.22 1025.69C1721.91 1024.92 1721.76 1024.04 1721.76 1023.05C1721.76 1022.09 1721.92 1021.22 1722.24 1020.46C1722.56 1019.67 1722.98 1019.02 1723.49 1018.49C1724.02 1017.94 1724.62 1017.53 1725.29 1017.24C1725.96 1016.95 1726.66 1016.81 1727.38 1016.81C1728.23 1016.81 1728.96 1016.95 1729.59 1017.24C1730.23 1017.53 1730.75 1017.93 1731.17 1018.44C1731.6 1018.95 1731.92 1019.56 1732.13 1020.26C1732.34 1020.95 1732.44 1021.7 1732.44 1022.52C1732.44 1022.84 1732.43 1023.14 1732.39 1023.43C1732.36 1023.72 1732.33 1023.94 1732.3 1024.08H1725.17C1725.33 1024.94 1725.68 1025.58 1726.23 1026C1726.79 1026.4 1727.47 1026.6 1728.27 1026.6C1729.11 1026.6 1729.97 1026.34 1730.83 1025.81L1732.01 1027.94C1731.4 1028.36 1730.72 1028.69 1729.97 1028.93C1729.23 1029.17 1728.51 1029.29 1727.79 1029.29ZM1725.15 1021.75H1729.44C1729.44 1021.08 1729.29 1020.54 1728.99 1020.12C1728.68 1019.7 1728.17 1019.5 1727.45 1019.5C1726.89 1019.5 1726.39 1019.68 1725.96 1020.05C1725.55 1020.42 1725.27 1020.98 1725.15 1021.75ZM1734.88 1029V1017.1H1737.76L1738 1019.18H1738.1C1738.53 1018.37 1739.05 1017.77 1739.66 1017.38C1740.26 1017 1740.87 1016.81 1741.48 1016.81C1741.82 1016.81 1742.09 1016.83 1742.3 1016.88C1742.52 1016.91 1742.72 1016.97 1742.9 1017.05L1742.32 1020.1C1742.1 1020.03 1741.89 1019.98 1741.7 1019.95C1741.5 1019.92 1741.28 1019.9 1741.02 1019.9C1740.58 1019.9 1740.1 1020.06 1739.61 1020.38C1739.13 1020.7 1738.73 1021.27 1738.41 1022.09V1029H1734.88ZM1752.22 1029V1023.43L1747.5 1013.35H1751.29L1752.68 1016.95C1752.9 1017.54 1753.11 1018.12 1753.3 1018.68C1753.51 1019.22 1753.73 1019.8 1753.95 1020.41H1754.05C1754.27 1019.8 1754.49 1019.22 1754.7 1018.68C1754.92 1018.12 1755.14 1017.54 1755.37 1016.95L1756.78 1013.35H1760.48L1755.75 1023.43V1029H1752.22ZM1765.66 1029.29C1764.9 1029.29 1764.18 1029.15 1763.47 1028.88C1762.77 1028.59 1762.14 1028.18 1761.6 1027.66C1761.07 1027.13 1760.65 1026.48 1760.33 1025.71C1760.01 1024.93 1759.85 1024.04 1759.85 1023.05C1759.85 1022.06 1760.01 1021.18 1760.33 1020.41C1760.65 1019.62 1761.07 1018.97 1761.6 1018.44C1762.14 1017.91 1762.77 1017.51 1763.47 1017.24C1764.18 1016.95 1764.9 1016.81 1765.66 1016.81C1766.41 1016.81 1767.13 1016.95 1767.82 1017.24C1768.52 1017.51 1769.14 1017.91 1769.66 1018.44C1770.21 1018.97 1770.64 1019.62 1770.96 1020.41C1771.28 1021.18 1771.44 1022.06 1771.44 1023.05C1771.44 1024.04 1771.28 1024.93 1770.96 1025.71C1770.64 1026.48 1770.21 1027.13 1769.66 1027.66C1769.14 1028.18 1768.52 1028.59 1767.82 1028.88C1767.13 1029.15 1766.41 1029.29 1765.66 1029.29ZM1765.66 1026.43C1766.38 1026.43 1766.92 1026.13 1767.29 1025.52C1767.66 1024.91 1767.84 1024.09 1767.84 1023.05C1767.84 1022.01 1767.66 1021.18 1767.29 1020.58C1766.92 1019.97 1766.38 1019.66 1765.66 1019.66C1764.92 1019.66 1764.37 1019.97 1764 1020.58C1763.65 1021.18 1763.47 1022.01 1763.47 1023.05C1763.47 1024.09 1763.65 1024.91 1764 1025.52C1764.37 1026.13 1764.92 1026.43 1765.66 1026.43ZM1777.43 1029.29C1776.14 1029.29 1775.19 1028.86 1774.6 1028.02C1774.02 1027.17 1773.74 1025.99 1773.74 1024.49V1017.1H1777.26V1024.03C1777.26 1024.9 1777.38 1025.49 1777.62 1025.81C1777.86 1026.13 1778.24 1026.29 1778.75 1026.29C1779.2 1026.29 1779.58 1026.18 1779.88 1025.98C1780.18 1025.77 1780.51 1025.43 1780.86 1024.97V1017.1H1784.39V1029H1781.51L1781.25 1027.34H1781.18C1780.66 1027.95 1780.11 1028.43 1779.52 1028.78C1778.94 1029.12 1778.25 1029.29 1777.43 1029.29ZM1791 1029.29C1790.22 1029.29 1789.41 1029.14 1788.58 1028.83C1787.76 1028.53 1787.05 1028.13 1786.44 1027.63L1788.03 1025.42C1788.57 1025.84 1789.09 1026.15 1789.59 1026.36C1790.08 1026.57 1790.59 1026.67 1791.1 1026.67C1791.63 1026.67 1792.01 1026.58 1792.25 1026.41C1792.49 1026.23 1792.61 1025.98 1792.61 1025.66C1792.61 1025.47 1792.54 1025.3 1792.39 1025.16C1792.27 1025 1792.08 1024.86 1791.84 1024.73C1791.62 1024.6 1791.36 1024.49 1791.07 1024.39C1790.79 1024.28 1790.49 1024.16 1790.19 1024.03C1789.82 1023.89 1789.45 1023.72 1789.08 1023.53C1788.71 1023.34 1788.38 1023.1 1788.07 1022.83C1787.77 1022.54 1787.52 1022.22 1787.33 1021.85C1787.14 1021.46 1787.04 1021.02 1787.04 1020.53C1787.04 1019.98 1787.15 1019.48 1787.35 1019.02C1787.58 1018.55 1787.89 1018.16 1788.29 1017.84C1788.69 1017.52 1789.17 1017.27 1789.73 1017.1C1790.29 1016.9 1790.91 1016.81 1791.6 1016.81C1792.51 1016.81 1793.31 1016.97 1794 1017.29C1794.69 1017.59 1795.29 1017.94 1795.8 1018.32L1794.22 1020.43C1793.79 1020.11 1793.36 1019.86 1792.95 1019.69C1792.53 1019.51 1792.11 1019.42 1791.7 1019.42C1790.8 1019.42 1790.35 1019.74 1790.35 1020.36C1790.35 1020.55 1790.42 1020.72 1790.55 1020.86C1790.67 1020.99 1790.84 1021.11 1791.05 1021.22C1791.27 1021.34 1791.52 1021.45 1791.79 1021.56C1792.08 1021.66 1792.38 1021.76 1792.68 1021.87C1793.07 1022.02 1793.44 1022.18 1793.81 1022.38C1794.19 1022.55 1794.54 1022.78 1794.84 1023.05C1795.16 1023.32 1795.42 1023.66 1795.61 1024.06C1795.8 1024.44 1795.9 1024.9 1795.9 1025.45C1795.9 1025.99 1795.79 1026.5 1795.59 1026.96C1795.38 1027.42 1795.07 1027.83 1794.65 1028.18C1794.23 1028.52 1793.72 1028.79 1793.11 1029C1792.51 1029.19 1791.8 1029.29 1791 1029.29ZM1803.47 1029.29C1802.62 1029.29 1801.83 1029.15 1801.09 1028.88C1800.35 1028.59 1799.71 1028.18 1799.17 1027.66C1798.63 1027.11 1798.2 1026.46 1797.9 1025.69C1797.59 1024.92 1797.44 1024.04 1797.44 1023.05C1797.44 1022.09 1797.6 1021.22 1797.92 1020.46C1798.24 1019.67 1798.66 1019.02 1799.17 1018.49C1799.7 1017.94 1800.3 1017.53 1800.97 1017.24C1801.64 1016.95 1802.34 1016.81 1803.06 1016.81C1803.91 1016.81 1804.64 1016.95 1805.27 1017.24C1805.91 1017.53 1806.43 1017.93 1806.85 1018.44C1807.28 1018.95 1807.6 1019.56 1807.81 1020.26C1808.02 1020.95 1808.12 1021.7 1808.12 1022.52C1808.12 1022.84 1808.11 1023.14 1808.07 1023.43C1808.04 1023.72 1808.01 1023.94 1807.98 1024.08H1800.85C1801.01 1024.94 1801.36 1025.58 1801.91 1026C1802.47 1026.4 1803.15 1026.6 1803.95 1026.6C1804.79 1026.6 1805.65 1026.34 1806.51 1025.81L1807.69 1027.94C1807.08 1028.36 1806.4 1028.69 1805.65 1028.93C1804.91 1029.17 1804.19 1029.29 1803.47 1029.29ZM1800.83 1021.75H1805.12C1805.12 1021.08 1804.97 1020.54 1804.67 1020.12C1804.36 1019.7 1803.85 1019.5 1803.13 1019.5C1802.57 1019.5 1802.07 1019.68 1801.64 1020.05C1801.23 1020.42 1800.95 1020.98 1800.83 1021.75ZM1811.04 1029V1019.86H1809.46V1017.24L1811.04 1017.12V1016.47C1811.04 1015.85 1811.11 1015.26 1811.26 1014.7C1811.42 1014.14 1811.67 1013.65 1812.03 1013.23C1812.38 1012.82 1812.83 1012.49 1813.39 1012.25C1813.95 1012.01 1814.63 1011.89 1815.43 1011.89C1815.93 1011.89 1816.38 1011.94 1816.78 1012.03C1817.19 1012.13 1817.54 1012.22 1817.81 1012.32L1817.16 1014.91C1816.71 1014.75 1816.31 1014.67 1815.94 1014.67C1815.51 1014.67 1815.17 1014.81 1814.93 1015.08C1814.69 1015.34 1814.57 1015.77 1814.57 1016.38V1017.1H1816.71V1019.86H1814.57V1029H1811.04ZM1827.39 1021.08L1827 1022.52H1830.34L1829.98 1021.08C1829.76 1020.3 1829.54 1019.46 1829.33 1018.58C1829.12 1017.7 1828.92 1016.86 1828.71 1016.04H1828.61C1828.42 1016.87 1828.22 1017.73 1828.01 1018.61C1827.82 1019.47 1827.61 1020.3 1827.39 1021.08ZM1821.72 1029L1826.62 1013.35H1830.87L1835.76 1029H1832.02L1831.06 1025.28H1826.28L1825.32 1029H1821.72ZM1840.43 1029.29C1839.82 1029.29 1839.31 1029.19 1838.89 1029C1838.47 1028.81 1838.14 1028.54 1837.88 1028.21C1837.64 1027.86 1837.47 1027.44 1837.35 1026.96C1837.24 1026.46 1837.19 1025.91 1837.19 1025.3V1012.18H1840.71V1025.45C1840.71 1025.82 1840.78 1026.07 1840.91 1026.22C1841.05 1026.36 1841.19 1026.43 1841.34 1026.43C1841.42 1026.43 1841.48 1026.43 1841.53 1026.43C1841.59 1026.43 1841.67 1026.42 1841.77 1026.38L1842.2 1029C1842.01 1029.08 1841.76 1029.14 1841.46 1029.19C1841.17 1029.26 1840.83 1029.29 1840.43 1029.29ZM1844.05 1029V1017.1H1847.58V1029H1844.05ZM1845.8 1015.34C1845.21 1015.34 1844.72 1015.18 1844.34 1014.84C1843.96 1014.49 1843.76 1014.04 1843.76 1013.5C1843.76 1012.95 1843.96 1012.51 1844.34 1012.18C1844.72 1011.84 1845.21 1011.67 1845.8 1011.67C1846.41 1011.67 1846.9 1011.84 1847.27 1012.18C1847.65 1012.51 1847.84 1012.95 1847.84 1013.5C1847.84 1014.04 1847.65 1014.49 1847.27 1014.84C1846.9 1015.18 1846.41 1015.34 1845.8 1015.34Z" fill="#EDEAEF"/>
<defs>
<filter id="filter0_dddddd_1_2" x="720" y="394" width="453.475" height="370.14" filterUnits="userSpaceOnUse" color-interpolation-filters="sRGB">
<feFlood flood-opacity="0" result="BackgroundImageFix"/>
<feColorMatrix in="SourceAlpha" type="matrix" values="0 0 0 0 0 0 0 0 0 0 0 0 0 0 0 0 0 0 127 0" result="hardAlpha"/>
<feOffset dy="1.54966"/>
<feGaussianBlur stdDeviation="0.70565"/>
<feColorMatrix type="matrix" values="0 0 0 0 0.65098 0 0 0 0 0.65098 0 0 0 0 0.654902 0 0 0 0.151819 0"/>
<feBlend mode="normal" in2="BackgroundImageFix" result="effect1_dropShadow_1_2"/>
<feColorMatrix in="SourceAlpha" type="matrix" values="0 0 0 0 0 0 0 0 0 0 0 0 0 0 0 0 0 0 127 0" result="hardAlpha"/>
<feOffset dy="3.72406"/>
<feGaussianBlur stdDeviation="1.69578"/>
<feColorMatrix type="matrix" values="0 0 0 0 0.65098 0 0 0 0 0.65098 0 0 0 0 0.654902 0 0 0 0.218102 0"/>
<feBlend mode="normal" in2="effect1_dropShadow_1_2" result="effect2_dropShadow_1_2"/>
<feColorMatrix in="SourceAlpha" type="matrix" values="0 0 0 0 0 0 0 0 0 0 0 0 0 0 0 0 0 0 127 0" result="hardAlpha"/>
<feOffset dy="7.01207"/>
<feGaussianBlur stdDeviation="3.193"/>
<feColorMatrix type="matrix" values="0 0 0 0 0.65098 0 0 0 0 0.65098 0 0 0 0 0.654902 0 0 0 0.27 0"/>
<feBlend mode="normal" in2="effect2_dropShadow_1_2" result="effect3_dropShadow_1_2"/>
<feColorMatrix in="SourceAlpha" type="matrix" values="0 0 0 0 0 0 0 0 0 0 0 0 0 0 0 0 0 0 127 0" result="hardAlpha"/>
<feOffset dy="12.5083"/>
<feGaussianBlur stdDeviation="5.69576"/>
<feColorMatrix type="matrix" values="0 0 0 0 0.65098 0 0 0 0 0.65098 0 0 0 0 0.654902 0 0 0 0.321898 0"/>
<feBlend mode="normal" in2="effect3_dropShadow_1_2" result="effect4_dropShadow_1_2"/>
<feColorMatrix in="SourceAlpha" type="matrix" values="0 0 0 0 0 0 0 0 0 0 0 0 0 0 0 0 0 0 127 0" result="hardAlpha"/>
<feOffset dy="23.3955"/>
<feGaussianBlur stdDeviation="10.6533"/>
<feColorMatrix type="matrix" values="0 0 0 0 0.65098 0 0 0 0 0.65098 0 0 0 0 0.654902 0 0 0 0.388181 0"/>
<feBlend mode="normal" in2="effect4_dropShadow_1_2" result="effect5_dropShadow_1_2"/>
<feColorMatrix in="SourceAlpha" type="matrix" values="0 0 0 0 0 0 0 0 0 0 0 0 0 0 0 0 0 0 127 0" result="hardAlpha"/>
<feOffset dy="56"/>
<feGaussianBlur stdDeviation="25.5"/>
<feColorMatrix type="matrix" values="0 0 0 0 0.65098 0 0 0 0 0.65098 0 0 0 0 0.654902 0 0 0 0.54 0"/>
<feBlend mode="normal" in2="effect5_dropShadow_1_2" result="effect6_dropShadow_1_2"/>
<feBlend mode="normal" in="SourceGraphic" in2="effect6_dropShadow_1_2" result="shape"/>
</filter>
<linearGradient id="paint0_linear_1_2" x1="1070.07" y1="427.334" x2="907.011" y2="676.969" gradientUnits="userSpaceOnUse">
<stop stop-color="#A950C4"/>
<stop offset="1" stop-color="#82269E"/>
</linearGradient>
</defs>
</svg>
